<svg xmlns="http://www.w3.org/2000/svg" xmlns:xlink="http://www.w3.org/1999/xlink" version="1.1" x="0px" y="0px" viewBox="0 0 100 125" style="enable-background:new 0 0 100 100;" xml:space="preserve"><g><g><path d="M50,16.7949219c-19.8505859,0-36,14.8955078-36,33.2050781c0,9.5996094,4.5029297,18.7265625,12.3540039,25.0410156    C32.8974609,80.3056641,41.2949219,83.2050781,50,83.2050781s17.1025391-2.8994141,23.6459961-8.1640625    C81.4970703,68.7265625,86,59.5996094,86,50C86,31.6904297,69.8505859,16.7949219,50,16.7949219z M72.019043,73.7783203    C65.8847656,78.5712891,58.0859375,81.2050781,50,81.2050781s-15.8847656-2.6337891-22.019043-7.4267578V44.203125    c0-2.4941406,1.0234375-4.9267578,2.8081055-6.6748047c1.7583008-1.7236328,4.0625-2.6777344,6.4550781-2.6044922    c0.0541992,0.0107422,0.1088867,0.0166016,0.1640625,0.0185547c2.4448242,0.0673828,4.0009766,0.8701172,5.6489258,1.71875    c1.8613281,0.9599609,3.7861328,1.9521484,6.9394531,1.9667969c2.7939453,0.0292969,4.527832-0.9570313,6.171875-1.8925781    c1.4824219-0.8427734,2.8828125-1.6396484,5.2338867-1.7958984c0.6142578-0.0458984,1.2407227-0.0537109,1.918457-0.0166016    c4.8774414,0.2490234,8.6982422,4.3134766,8.6982422,9.2539063V73.7783203z"/><path d="M39.0625,49.9716797c-1.0463867,0-1.8974609,0.8505859-1.8974609,1.8955078s0.8510742,1.8945313,1.8974609,1.8945313    s1.8974609-0.8496094,1.8974609-1.8945313S40.1088867,49.9716797,39.0625,49.9716797z"/><path d="M60.9375,49.9716797c-1.0463867,0-1.8974609,0.8505859-1.8974609,1.8955078s0.8510742,1.8945313,1.8974609,1.8945313    s1.8974609-0.8496094,1.8974609-1.8945313S61.9838867,49.9716797,60.9375,49.9716797z"/><path d="M52.3525391,51.8808594c-1.4511719-0.8671875-3.2539063-0.8671875-4.7050781,0c0,0,0,0-0.0004883,0    c-1.9360352,1.1591797-3.5673828,2.9150391-4.8476563,5.2207031c-0.5649414,1.0185547-0.6191406,2.2597656-0.1455078,3.3212891    c1.2304688,2.7578125,3.1235352,5.1289063,5.6269531,7.0498047C48.7866211,67.8603516,49.3935547,68.0546875,50,68.0546875    s1.2133789-0.1943359,1.7192383-0.5830078c2.503418-1.9199219,4.3964844-4.2910156,5.6269531-7.0488281    c0.4736328-1.0615234,0.4194336-2.3027344-0.1459961-3.3212891    C55.9204102,54.7958984,54.2890625,53.0400391,52.3525391,51.8808594z M55.5200195,59.6083984    c-1.0932617,2.4492188-2.7817383,4.5615234-5.0175781,6.2763672c-0.2958984,0.2285156-0.7089844,0.2275391-1.0048828,0.0009766    c-2.2358398-1.7158203-3.9243164-3.828125-5.0175781-6.2773438c-0.21875-0.4912109-0.1933594-1.0654297,0.0678711-1.5361328    c1.1074219-1.9931641,2.4956055-3.4990234,4.1264648-4.4746094c0.8173828-0.4902344,1.8339844-0.4902344,2.6513672,0    c1.6308594,0.9755859,3.019043,2.4814453,4.1259766,4.4746094C55.7133789,58.5429688,55.7387695,59.1171875,55.5200195,59.6083984    z"/></g></g></svg>